<?xml version="1.0" encoding="utf-8"?>
<svg version="1.1" xmlns="http://www.w3.org/2000/svg" xmlns:xlink="http://www.w3.org/1999/xlink" x="0px" y="0px" fill="rgba(0,0,0,0.3)" viewBox="0 0 1000 1000" enable-background="new 0 0 1000 1000" xml:space="preserve">
<g><g transform="translate(0.000000,511.000000) scale(0.100000,-0.100000)"><path d="M9615.3,5004.8c-476.9-63.4-1285.5-210.8-1512.7-274.3l-79.8-22.5l786-786c501.5-501.5,790.1-775.8,798.3-759.4c43,77.8,210.8,970.2,274.3,1457.4c34.8,272.2,24.6,335.7-63.4,376.6C9766.8,5019.1,9732,5021.2,9615.3,5004.8z"/><path d="M7537.7,4540.2c-487.2-198.6-935.4-456.5-1381.7-790.1c-335.7-251.8-579.3-468.7-941.6-841.3c-345.9-356.2-542.4-589.5-898.6-1064.4c-147.4-198.6-286.6-384.8-309.1-413.5c-40.9-53.2-47.1-55.3-450.3-83.9c-225.2-16.4-517.9-36.9-650.9-45c-178.1-10.2-251.8-22.5-280.4-47.1c-20.5-18.4-352.1-391-734.9-827c-599.7-683.7-698-802.4-698-857.7c0-55.3,30.7-96.2,190.4-255.9C1536.1-839.2,1585.2-876,1634.4-876c40.9,0,235.4,106.4,638.6,350c558.8,337.7,581.3,350,640.7,325.4c32.8-14.3,59.4-30.7,59.4-36.8c0-6.1-32.8-67.5-71.6-139.2c-38.9-69.6-71.6-153.5-71.6-184.2c0-49.1,114.6-172,722.6-779.9c614.1-616.1,730.8-722.6,779.9-722.6c32.8,0,118.7,32.8,192.4,73.7c135.1,75.7,155.6,75.7,178.1-12.3c8.2-40.9-57.3-163.8-337.7-624.3c-243.6-401.2-348-589.5-348-632.5c0-49.1,36.8-96.2,190.4-251.8c161.7-161.7,200.6-190.4,255.9-190.4c69.6,0,38.9-24.6,1310,1095.1c217,190.4,399.2,366.4,403.2,388.9c6.1,22.5,24.6,262,40.9,532.2c16.4,270.2,36.8,552.7,43,628.4l14.3,139.2l206.7,147.4C7904.1,239.6,8845.7,1299.9,9365.6,2481c61.4,141.2,124.9,294.8,139.2,343.9l26.6,88l-859.7,859.7c-470.8,470.8-872,857.7-888.4,857.7C7766.9,4628.2,7656.4,4589.3,7537.7,4540.2z M7914.3,3322.2c221.1-108.5,343.9-300.9,356.2-554.7c18.4-372.5-233.3-653-603.8-671.4c-217-12.3-333.6,32.7-489.2,188.3c-143.3,145.3-192.4,257.9-192.4,452.4c0,194.5,49.1,307,192.4,452.4c157.6,155.6,249.7,192.4,472.8,186.3C7775.1,3371.4,7838.6,3359.1,7914.3,3322.2z M6528.6,2006.1c159.6-59.4,311.1-210.8,372.5-374.6c36.8-98.2,45-151.5,38.9-268.1c-34.8-550.6-669.3-806.5-1086.9-440.1c-40.9,36.8-104.4,126.9-139.2,198.6c-57.3,114.6-65.5,155.6-65.5,282.5c2,104.4,14.3,178.1,43,243.6c75.7,169.9,255.9,329.6,433.9,384.8C6227.6,2063.4,6407.8,2051.1,6528.6,2006.1z M5226.7,655.1C5636.1,464.7,5736.4-77.7,5419.1-395c-249.7-247.7-671.4-247.7-921.1,0c-180.1,182.2-239.5,489.2-137.1,716.4C4514.4,657.2,4901.2,806.6,5226.7,655.1z"/><path d="M2508.4-1193.3c-204.7-55.3-354.1-149.4-542.4-337.7c-157.6-159.6-190.4-204.7-300.9-431.9c-174-356.2-255.9-659.1-321.4-1183.1c-36.8-294.7-30.7-354.1,45-403.2c47.1-30.7,75.7-32.8,280.4-10.2c1305.9,139.2,2061.3,667.3,2061.3,1439c0,159.6-24.6,227.2-96.2,260c-75.7,34.8-88,30.7-268.1-88c-198.6-131-358.2-196.5-519.9-210.8l-118.7-12.3v71.7c0,151.5,108.5,417.6,253.8,620.2c77.8,108.5,88,151.5,51.2,219C2981.2-1166.7,2731.5-1133.9,2508.4-1193.3z"/><path d="M1386.7-1531c-391-229.3-745.1-710.3-960-1305.9c-163.8-454.4-311.1-1215.9-325.4-1670.3c-4.1-137.1,0-157.6,47.1-206.7c83.9-92.1,122.8-96.2,448.3-61.4c1467.6,161.7,2439.9,628.4,2824.8,1359.2c30.7,55.3,38.9,57.3-139.2-55.3c-288.6-184.2-616.1-298.9-1136-401.2c-462.6-92.1-571.1-102.3-728.7-73.7c-161.7,28.7-262,79.8-341.8,172c-98.2,108.5-118.7,196.5-116.7,472.8c2.1,569,204.7,1287.5,489.2,1746c28.6,47.1,51.2,86,47.1,86S1444-1498.3,1386.7-1531z"/></g></g>
</svg>